<?xml version="1.0" encoding="UTF-8"?>
<svg id="Calque_1" xmlns="http://www.w3.org/2000/svg" xmlns:xlink="http://www.w3.org/1999/xlink" version="1.1" viewBox="0 0 141.7 141.7">
  <!-- Generator: Adobe Illustrator 29.2.1, SVG Export Plug-In . SVG Version: 2.1.0 Build 116)  -->
  <defs>
    <style>
      .st0 {
        fill: none;
      }

      .st1 {
        fill: url(#Dégradé_sans_nom_4);
      }

      .st2 {
        fill: url(#Dégradé_sans_nom_5);
      }

      .st3 {
        fill: url(#Dégradé_sans_nom_2);
      }

      .st4 {
        fill: url(#Dégradé_sans_nom_3);
      }

      .st5 {
        fill: #34669a;
      }

      .st6 {
        fill: url(#Dégradé_sans_nom);
      }

      .st7 {
        fill: #fff;
        isolation: isolate;
        opacity: .3;
      }
    </style>
    <linearGradient id="Dégradé_sans_nom" data-name="Dégradé sans nom" x1="71.3" y1="341.4" x2="71.3" y2="431.5" gradientTransform="translate(-116.8 -206.4) rotate(-21.9)" gradientUnits="userSpaceOnUse">
      <stop offset="0" stop-color="#009bdd"/>
      <stop offset=".4" stop-color="#386fb3"/>
      <stop offset=".7" stop-color="#5aa7dc"/>
      <stop offset="1" stop-color="#386fb3"/>
    </linearGradient>
    <linearGradient id="Dégradé_sans_nom_2" data-name="Dégradé sans nom 2" x1="67.3" y1="-24.5" x2="67.3" y2="65.6" gradientTransform="translate(-21.3 31.5) rotate(-21.9)" gradientUnits="userSpaceOnUse">
      <stop offset="0" stop-color="#009bdd"/>
      <stop offset=".4" stop-color="#386fb3"/>
      <stop offset=".7" stop-color="#5aa7dc"/>
      <stop offset="1" stop-color="#386fb3"/>
    </linearGradient>
    <linearGradient id="Dégradé_sans_nom_3" data-name="Dégradé sans nom 3" x1="49.6" y1="-272" x2="49.6" y2="-181.9" gradientTransform="translate(-79.5 -113.4) rotate(-21.9) scale(1 -1)" gradientUnits="userSpaceOnUse">
      <stop offset="0" stop-color="#009bdd"/>
      <stop offset=".4" stop-color="#386fb3"/>
      <stop offset=".7" stop-color="#5aa7dc"/>
      <stop offset="1" stop-color="#386fb3"/>
    </linearGradient>
    <linearGradient id="Dégradé_sans_nom_4" data-name="Dégradé sans nom 4" x1="117.2" y1="326.7" x2="117.2" y2="327" gradientTransform="translate(-116.8 -206.4) rotate(-21.9)" gradientUnits="userSpaceOnUse">
      <stop offset="0" stop-color="#009bdd"/>
      <stop offset=".4" stop-color="#386fb3"/>
      <stop offset=".7" stop-color="#5aa7dc"/>
      <stop offset="1" stop-color="#386fb3"/>
    </linearGradient>
    <linearGradient id="Dégradé_sans_nom_5" data-name="Dégradé sans nom 5" x1="69.4" y1="293" x2="69.4" y2="378.3" gradientTransform="translate(-116.8 -206.4) rotate(-21.9)" gradientUnits="userSpaceOnUse">
      <stop offset="0" stop-color="#009bdd"/>
      <stop offset=".4" stop-color="#386fb3"/>
      <stop offset=".7" stop-color="#5aa7dc"/>
      <stop offset="1" stop-color="#386fb3"/>
    </linearGradient>
  </defs>
  <path class="st0" d="M100.5,39.1c1.4,1.3,2.6,2.6,3.7,4.1,3.3-2.4,6.7-5,10.1-7.6,4.2-3.6-2.3-2.4-13.9,3.5h0Z"/>
  <path class="st0" d="M29.7,103.8c2-.7,4-1.4,6-2.1-.6-.6-1.2-1.4-1.7-2-14.2,4.1-12.5,6.8-4.3,4.1Z"/>
  <path class="st0" d="M21.7,83.9c1.2-.5,2.5-.8,3.8-1.3-.2-.8-.4-1.7-.6-2.5-13.1,4-11.1,6.4-3.2,3.8Z"/>
  <path class="st0" d="M122.4,55.5c3.8-3.2-1-2.6-10.5,1.8.7,1.7,1,3.4,1.4,5,3-2.2,6.1-4.5,9.1-6.9Z"/>
  <path class="st6" d="M114.1,68.8c1.1,18.8-9.7,37.1-28.2,44.5s-31.5,3.4-43.6-5.7c25.9-9.6,49.8-22.6,71.8-38.8Z"/>
  <path class="st3" d="M100.5,39.1c2.4-2.7,1.1-2.8.5-2.5l-1.6-.2s-1.8.3-1.7.3c-12.3-10-29.6-13.2-45.3-6.9s-30.1,27.2-28,46.8c-.7.8-3.4,1.6-2.2,1.1l.2,3c-.5.2,2.9-.6,2.5-.6.1.8.4,1.7.6,2.5,29.6-10,54.3-21.8,78.7-39.3-1.1-1.5-2.4-2.8-3.7-4.1h0ZM57,47c-.1,6.9-9.6,9.4-12.6,13.5-2.1,2.7-1.5,10.6-4.3,15.2-2,3.3-6.9,3.4-9,.2-4.1-6.7,1.3-18.7,6.6-25.3,6.7-8.4,19.4-10.4,19.4-3.5h0Z"/>
  <path class="st4" d="M40.1,75.7c2.8-4.6,2.3-12.5,4.3-15.2,3-4,12.5-6.4,12.6-13.5.1-6.9-12.6-5-19.4,3.5-5.2,6.5-10.6,18.6-6.6,25.3,2.1,3.3,7,3.1,9-.2h0Z"/>
  <path class="st7" d="M40.1,75.7c2.8-4.6,2.3-12.5,4.3-15.2,3-4,12.5-6.4,12.6-13.5.1-6.9-12.6-5-19.4,3.5-5.2,6.5-10.6,18.6-6.6,25.3,2.1,3.3,7,3.1,9-.2h0Z"/>
  <path class="st0" d="M27.4,88.3l.3.8c-3,1-5.8,2-8.8,2.9l-.9-1.8c.8-.1,1.7-.4,2.6-.6,2.2-.7,4.4-1.3,6.6-2l.3.6h0Z"/>
  <path class="st0" d="M115.8,41.2c-2.8,2.2-5.6,4.3-8.4,6.4-.2-.5-.5-.8-.8-1.1,2.9-2.1,5.7-4.2,8.5-6.4l.7,1.2h0Z"/>
  <g>
    <path class="st1" d="M113.3,53.4c1.2-.3.9-.5,0,0h0Z"/>
    <path class="st2" d="M108,48.7c-24.4,17.7-51,31.4-79.9,41.3,1,2.3,2.2,4.5,3.6,6.4-2.1,2.6-3.4,3.3-1.9,2.8l1,.7c0,0,3.3-.4,3.2-.4.5.8,1.1,1.4,1.7,2,29-10,53.3-21.8,77.5-39.4-.4-1.7-.8-3.3-1.4-5,3.2-2.3,3.1-3.3,1.2-2.3v-1.5s.1,0,.2-.1c-.6.2-1.4.2-2.8.4-.7-1.8-1.6-3.5-2.5-5h0v.2Z"/>
  </g>
  <path class="st0" d="M42.2,107.7c-5.5,2.1-11,4-16.7,5.7l-1.2-2.1c3.2-1.1,6.3-2.2,9.5-3.4,2-.6,4-1.3,6.1-2,.8.6,1.5,1.2,2.2,1.8Z"/>
  <path class="st0" d="M122.4,62.6c-2.7,2.2-5.5,4.3-8.2,6.3,0-.7-.2-1.4-.2-2.2,2.6-1.9,5.2-3.8,7.6-5.7,0,0,.9,1.6.9,1.6Z"/>
  <path class="st0" d="M113.9,66.6c0,.7.2,1.4.2,2.2-22,16.3-45.9,29.2-71.8,38.8-.8-.6-1.6-1.2-2.2-1.8,26.5-9.1,51.4-22.8,73.9-39.2h-.1Z"/>
  <path class="st5" d="M118.5,37.3c-1.2.9-2.3,1.8-3.5,2.7l-.4-1c-3,2.3-5.9,4.3-8.8,6.5-.5-.8-1-1.4-1.6-2.2,3.3-2.4,6.7-5,10.1-7.6,4.2-3.6-2.3-2.4-13.9,3.5-.9-.8-1.9-1.7-2.8-2.5,6.6-4.2,17.3-8.8,22.6-8.5,2.4.1,5.9,3-1.7,9.1h.1Z"/>
  <path class="st5" d="M21.7,83.9c1.2-.5,2.6-.8,3.8-1.3.3,1.4.8,2.7,1.2,4-3,1.1-5.9,2.2-9,3.2l.2.5c-7.1,1.3-9.9-1.9-8.8-4.5,2-4.4,5.6-6,15.3-9.2.2,1.2.3,2.5.5,3.7-13,3.9-11.1,6.4-3.2,3.8h0Z"/>
  <path class="st0" d="M27.9,75.3l-1.5,4.5c-.5.2-.9.4-1.3.4-.3-1.2-.4-2.4-.5-3.7,1-.4,2.2-.8,3.4-1.2h0Z"/>
  <path class="st5" d="M105.8,45.4c-.5-.8-1-1.4-1.6-2.2-24.4,17.6-49.1,29.3-78.7,39.3.3,1.4.8,2.7,1.2,4,28.4-10.3,54.8-24,79.1-41.3h0Z"/>
  <path class="st0" d="M100.5,39.1c-.6.3-1.2.6-1.8.9l-1.3-3.2h.3c1,.7,1.9,1.5,2.8,2.4h0Z"/>
  <path class="st5" d="M115.1,40c-2.8,2.2-5.7,4.3-8.5,6.4-.1-.4-.5-.7-.7-1,3-2,5.9-4.2,8.7-6.4,0,0,.5,1,.5,1Z"/>
  <path class="st5" d="M26.8,86.7l.4,1c-2.2.7-4.4,1.3-6.6,2-.8.3-1.7.5-2.6.6l-.2-.5c3-1,6-2.1,9-3.2Z"/>
  <path class="st5" d="M106.6,46.4c-24.1,17.6-50.8,32.1-79.4,41.3l-.4-1c28.4-10.3,54.8-24,79.1-41.3.1.4.5.7.7,1h0Z"/>
  <path class="st5" d="M126.5,57.1c-1.6,1.3-3.3,2.6-4.9,3.9l-.3-.6c-2.5,1.9-5,3.7-7.5,5.5-.1-1.1-.4-2.3-.6-3.4,3-2.2,6.1-4.5,9.1-6.9,3.7-3.2-1-2.6-10.5,1.8l-1-2.5-.4-1c6.2-3.3,13.6-6,17.7-5.8,2.4.1,5.9,3-1.7,9.1h0Z"/>
  <path class="st5" d="M39.8,105.6c-1.9.8-3.9,1.6-5.8,2.2-1.8.5-3.6,1.1-5.5,1.7-9.1,2.6-12.7-1-11.4-3.9,2-4.2,5.4-5.8,14.6-9.1.8,1.1,1.5,2.1,2.3,3.2-14.2,4.1-12.5,6.8-4.3,4.1,2-.7,4-1.4,6-2.1,1.2,1.4,2.6,2.7,4.1,4Z"/>
  <path class="st5" d="M35.7,101.7c1.3,1.4,2.6,2.7,4.1,4,26.5-10.2,51.2-23.4,74.1-39.9-.1-1.1-.4-2.3-.6-3.4-24.2,17.6-48.5,29.4-77.5,39.4h0Z"/>
  <path class="st0" d="M35.8,95.1l-1.5,4.5h-.3c-.8-.9-1.6-1.9-2.3-3,1.2-.5,2.7-.9,4.1-1.4h0Z"/>
  <path class="st0" d="M111,54.8l1,2.5c-1.6.8-3.3,1.7-5.2,2.6l-1.3-3.2c1.6-.9,3.3-2,5.1-2.9l.4,1Z"/>
  <path class="st5" d="M40,105.9c-2,.7-4,1.4-6.1,2,1.9-.8,3.9-1.5,5.8-2.2,0,0,0,.2.2.2h0Z"/>
  <path class="st5" d="M121.6,61c-2.5,2-5,3.8-7.6,5.7-.1-.3,0-.6-.1-.9,2.5-1.8,4.9-3.6,7.4-5.4l.3.6h0Z"/>
  <path class="st5" d="M113.8,65.8c.1.3,0,.6.1.9-22.5,16.4-47.4,30.1-73.9,39.2,0,0,0-.2-.2-.2,26.5-10.2,51.2-23.4,74.1-39.9h0Z"/>
</svg>