<?xml version="1.0" encoding="UTF-8"?>
<svg id="Calque_1" xmlns="http://www.w3.org/2000/svg" xmlns:xlink="http://www.w3.org/1999/xlink" version="1.1" viewBox="0 0 141.7 141.7">
  <!-- Generator: Adobe Illustrator 29.2.1, SVG Export Plug-In . SVG Version: 2.1.0 Build 116)  -->
  <defs>
    <style>
      .st0 {
        fill: none;
      }

      .st1 {
        fill: url(#Dégradé_sans_nom_4);
      }

      .st2 {
        fill: url(#Dégradé_sans_nom_5);
      }

      .st3 {
        fill: url(#Dégradé_sans_nom_2);
      }

      .st4 {
        fill: url(#Dégradé_sans_nom_3);
      }

      .st5 {
        fill: #34669a;
      }

      .st6 {
        fill: url(#Dégradé_sans_nom);
      }

      .st7 {
        fill: #fff;
        isolation: isolate;
        opacity: .3;
      }
    </style>
    <linearGradient id="Dégradé_sans_nom" data-name="Dégradé sans nom" x1="71.2" y1="58.6" x2="71.2" y2="-31.5" gradientTransform="translate(0 143.7) scale(1 -1)" gradientUnits="userSpaceOnUse">
      <stop offset="0" stop-color="#009bdd"/>
      <stop offset=".4" stop-color="#386fb3"/>
      <stop offset=".7" stop-color="#5aa7dc"/>
      <stop offset="1" stop-color="#386fb3"/>
    </linearGradient>
    <linearGradient id="Dégradé_sans_nom_2" data-name="Dégradé sans nom 2" x1="67.3" y1="416" x2="67.3" y2="325.9" gradientTransform="translate(0 -300.1)" gradientUnits="userSpaceOnUse">
      <stop offset="0" stop-color="#009bdd"/>
      <stop offset=".4" stop-color="#386fb3"/>
      <stop offset=".7" stop-color="#5aa7dc"/>
      <stop offset="1" stop-color="#386fb3"/>
    </linearGradient>
    <linearGradient id="Dégradé_sans_nom_3" data-name="Dégradé sans nom 3" x1="49.6" y1="416" x2="49.6" y2="325.9" gradientTransform="translate(0 -300.1)" gradientUnits="userSpaceOnUse">
      <stop offset="0" stop-color="#009bdd"/>
      <stop offset=".4" stop-color="#386fb3"/>
      <stop offset=".7" stop-color="#5aa7dc"/>
      <stop offset="1" stop-color="#386fb3"/>
    </linearGradient>
    <linearGradient id="Dégradé_sans_nom_4" data-name="Dégradé sans nom 4" x1="117.2" y1="73.3" x2="117.2" y2="73" gradientTransform="translate(0 143.7) scale(1 -1)" gradientUnits="userSpaceOnUse">
      <stop offset="0" stop-color="#009bdd"/>
      <stop offset=".4" stop-color="#386fb3"/>
      <stop offset=".7" stop-color="#5aa7dc"/>
      <stop offset="1" stop-color="#386fb3"/>
    </linearGradient>
    <linearGradient id="Dégradé_sans_nom_5" data-name="Dégradé sans nom 5" x1="69.4" y1="107" x2="69.4" y2="21.7" gradientTransform="translate(0 143.7) scale(1 -1)" gradientUnits="userSpaceOnUse">
      <stop offset="0" stop-color="#009bdd"/>
      <stop offset=".4" stop-color="#386fb3"/>
      <stop offset=".7" stop-color="#5aa7dc"/>
      <stop offset="1" stop-color="#386fb3"/>
    </linearGradient>
  </defs>
  <path class="st0" d="M110.2,52.5c.8,1.7,1.4,3.4,1.9,5.2,4-1,8.1-2.1,12.2-3.3,5.2-1.8-1.2-3.1-14.2-1.9h0Z"/>
  <path class="st0" d="M20.4,86.1c2.1.1,4.2.2,6.3.3-.3-.8-.6-1.7-.8-2.5-14.7-1.5-14.1,1.7-5.5,2.2Z"/>
  <path class="st0" d="M20.4,64.7c1.3,0,2.6.2,4,.2.1-.8.2-1.7.4-2.5-13.6-1.2-12.7,1.8-4.4,2.3Z"/>
  <path class="st0" d="M124.4,75.8c4.7-1.6,0-2.8-10.4-2.2,0,1.8-.3,3.5-.6,5.2,3.6-.9,7.3-1.9,11-3Z"/>
  <path class="st6" d="M111.8,85.1c-6,17.9-22.8,30.8-42.7,30.8s-30.5-8.6-38.4-21.5c27.6.7,54.6-2.4,81.1-9.3Z"/>
  <path class="st3" d="M110.2,52.5c3.2-1.6,2.1-2.2,1.4-2.1l-1.4-.8c0,0-1.8-.4-1.7-.4-7.7-13.9-22.5-23.3-39.5-23.3s-38.1,14-43.4,33c-1,.5-3.7.2-2.4.2l-.9,2.9c-.5,0,2.9.5,2.5.4-.2.8-.3,1.7-.4,2.5,31.2,1.7,58.5,0,87.7-7.2-.5-1.8-1.2-3.5-1.9-5.2h0ZM66.9,43.6c-2.7,6.4-12.4,5.2-16.7,7.8-2.9,1.7-5.4,9.3-9.7,12.5-3.1,2.3-7.7.6-8.4-3.2-1.3-7.7,8.2-16.9,15.5-21,9.4-5.3,21.9-2.4,19.3,4Z"/>
  <path class="st4" d="M40.5,63.9c4.3-3.2,6.8-10.7,9.7-12.5,4.3-2.6,14-1.3,16.7-7.8,2.7-6.4-9.8-9.3-19.3-4-7.3,4.1-16.8,13.3-15.5,21,.7,3.8,5.3,5.5,8.4,3.2Z"/>
  <path class="st7" d="M40.5,63.9c4.3-3.2,6.8-10.7,9.7-12.5,4.3-2.6,14-1.3,16.7-7.8,2.7-6.4-9.8-9.3-19.3-4-7.3,4.1-16.8,13.3-15.5,21,.7,3.8,5.3,5.5,8.4,3.2Z"/>
  <path class="st0" d="M24,70.9c0,.3,0,.6,0,.9-3.1-.2-6.1-.3-9.2-.6l-.2-2c.8.2,1.7.3,2.6.4,2.3.2,4.6.4,6.9.6,0,.2,0,.4,0,.7Z"/>
  <path class="st0" d="M123.6,60.1c-3.4,1-6.8,1.9-10.2,2.8,0-.5-.2-.9-.3-1.3,3.5-.9,6.9-1.8,10.3-2.8l.2,1.4Z"/>
  <g>
    <path class="st1" d="M116.8,70.5c1.2.2,1-.1,0,0h0Z"/>
    <path class="st2" d="M113.6,64.2c-29.2,7.3-59,10.2-89.5,8.6.1,2.5.4,5,.9,7.3-2.9,1.6-4.4,1.8-2.8,1.9l.7,1c-.1,0,3.2.8,3.1.8.2.9.5,1.7.8,2.5,30.7,1.5,57.6-.4,86.6-7.7.3-1.7.5-3.4.6-5.2,3.8-.9,4.1-1.9,2-1.7l.5-1.4c.1,0,.2,0,.3,0-.6,0-1.4-.3-2.7-.7,0-1.9-.2-3.8-.5-5.6h0Z"/>
  </g>
  <path class="st0" d="M30.6,94.4c-5.9-.1-11.7-.4-17.6-.9l-.3-2.4c3.4.2,6.7.3,10.1.4,2.1.2,4.2.3,6.4.4.5.9.9,1.7,1.4,2.5Z"/>
  <path class="st0" d="M121.8,82.4c-3.3,1-6.7,1.9-10,2.8.2-.7.4-1.4.6-2.1,3.1-.8,6.2-1.6,9.2-2.5,0,0,.2,1.8.2,1.8Z"/>
  <path class="st0" d="M112.4,83c-.2.7-.4,1.4-.6,2.1-26.5,6.9-53.5,10-81.1,9.3-.5-.8-1-1.7-1.4-2.5,28,1.4,56.2-2,83.2-8.8Z"/>
  <path class="st5" d="M127.6,57.5c-1.4.4-2.8.8-4.2,1.2v-1.1c-3.6,1-7.1,1.8-10.6,2.7-.2-.9-.4-1.7-.7-2.6,4-1,8.1-2.1,12.2-3.3,5.2-1.8-1.2-3.1-14.2-1.9-.5-1.1-1.1-2.3-1.7-3.4,7.7-1.4,19.3-1.7,24.1.5,2.2,1,4.4,5-5,7.8h0Z"/>
  <path class="st5" d="M20.4,64.7c1.3,0,2.7.2,4,.2-.2,1.4-.3,2.8-.4,4.2-3.2-.1-6.3-.2-9.5-.4v.5c-7.1-1.5-8.5-5.5-6.5-7.5,3.5-3.3,7.4-3.5,17.6-2.9-.3,1.2-.6,2.4-.9,3.6-13.5-1.2-12.7,1.8-4.4,2.3Z"/>
  <path class="st0" d="M29.3,59l-3.1,3.6c-.5,0-1,0-1.4-.1.2-1.2.5-2.4.9-3.6,1.1,0,2.3.1,3.6.2Z"/>
  <path class="st5" d="M112.8,60.3c-.2-.9-.4-1.7-.7-2.6-29.2,7.2-56.5,8.9-87.7,7.2-.2,1.4-.3,2.8-.4,4.2,30.2,1,59.8-1.9,88.8-8.9Z"/>
  <path class="st0" d="M110.2,52.5c-.7,0-1.3.1-2,.2v-3.5c0,0,.2,0,.3,0,.6,1.1,1.2,2.2,1.7,3.4Z"/>
  <path class="st5" d="M123.4,58.7c-3.4,1-6.9,1.9-10.3,2.8,0-.4-.2-.8-.3-1.2,3.5-.8,7-1.7,10.5-2.7,0,0,.1,1.1.1,1.1Z"/>
  <path class="st5" d="M24.1,69.2c0,.3,0,.7,0,1.1-2.3-.2-4.6-.4-6.9-.6-.9,0-1.8-.2-2.6-.4v-.5c3.1.2,6.3.3,9.5.4Z"/>
  <path class="st5" d="M113.1,61.5c-28.9,7.4-59.1,10.9-89.1,8.7,0-.4,0-.7,0-1.1,30.2,1,59.8-1.9,88.8-8.9,0,.4.2.8.3,1.2Z"/>
  <path class="st5" d="M127.6,78.8c-2,.6-4,1.2-6,1.8v-.7c-3,.8-6,1.6-9,2.3.3-1.1.5-2.3.7-3.4,3.6-.9,7.3-1.9,11-3,4.6-1.6,0-2.8-10.4-2.2,0-.9,0-1.8,0-2.7s0-.7,0-1.1c7-.7,14.9-.5,18.6,1.2,2.2,1,4.4,5-5,7.8Z"/>
  <path class="st5" d="M29.1,91.6c-2.1,0-4.2,0-6.2-.1-1.9-.2-3.8-.3-5.7-.5-9.4-1-11.4-5.7-9.1-7.9,3.4-3.2,7.2-3.4,16.9-3,.3,1.3.6,2.5,1,3.8-14.7-1.5-14.1,1.7-5.5,2.2,2.1.1,4.2.2,6.3.3.6,1.8,1.4,3.5,2.3,5.2Z"/>
  <path class="st5" d="M26.8,86.4c.7,1.8,1.4,3.5,2.3,5.2,28.4.4,56.2-2.7,83.6-9.4.3-1.1.5-2.3.7-3.4-29,7.3-55.9,9.2-86.6,7.7h0Z"/>
  <path class="st0" d="M29.3,80.3l-3.1,3.6c-.1,0-.2,0-.3,0-.4-1.2-.7-2.5-1-3.8,1.3,0,2.8.2,4.3.2Z"/>
  <path class="st0" d="M114.1,70.9c0,.9,0,1.8,0,2.7-1.8.1-3.7.3-5.8.5v-3.5c1.8-.3,3.8-.6,5.8-.8,0,.3,0,.7,0,1.1Z"/>
  <path class="st5" d="M29.2,91.9c-2.1-.1-4.2-.2-6.4-.4,2.1,0,4.2.1,6.2.1,0,0,0,.2.1.3Z"/>
  <path class="st5" d="M121.6,80.6c-3.1.9-6.1,1.7-9.2,2.5,0-.3.2-.6.2-.9,3-.7,5.9-1.5,8.9-2.3,0,0,0,.7,0,.7Z"/>
  <path class="st5" d="M112.6,82.2c0,.3-.2.6-.2.9-27,6.8-55.2,10.3-83.2,8.8,0,0,0-.2-.1-.3,28.4.4,56.2-2.7,83.6-9.4Z"/>
</svg>