<?xml version="1.0" encoding="UTF-8"?>
<svg id="Calque_1" data-name="Calque 1" xmlns="http://www.w3.org/2000/svg" xmlns:xlink="http://www.w3.org/1999/xlink" viewBox="0 0 141.73 141.73">
  <defs>
    <style>
      .cls-1 {
        stroke: #386fb3;
        stroke-width: 6px;
      }

      .cls-1, .cls-2 {
        fill: none;
        stroke-linecap: round;
        stroke-miterlimit: 10;
      }

      .cls-3 {
        fill: #fff;
        opacity: .3;
      }

      .cls-4 {
        fill: url(#Dégradé_sans_nom_83);
      }

      .cls-2 {
        stroke: #fff;
      }
    </style>
    <linearGradient id="Dégradé_sans_nom_83" data-name="Dégradé sans nom 83" x1="69.82" y1="112.11" x2="69.82" y2="22.05" gradientUnits="userSpaceOnUse">
      <stop offset="0" stop-color="#009bdd"/>
      <stop offset=".42" stop-color="#386fb3"/>
      <stop offset=".71" stop-color="#5aa7dc"/>
      <stop offset="1" stop-color="#386fb3"/>
    </linearGradient>
  </defs>
  <circle class="cls-4" cx="69.82" cy="67.08" r="45.03"/>
  <path class="cls-3" d="M41.3,60.07c-3.13,2.33-7.72.63-8.39-3.22-1.34-7.7,8.18-16.87,15.5-20.99,9.44-5.32,21.93-2.42,19.28,3.99-2.66,6.41-12.38,5.16-16.7,7.75-2.9,1.74-5.38,9.26-9.69,12.47Z"/>
  <path class="cls-1" d="M102.08,32.67C166.08,7.67-27.92,146.67,29.08,85.67"/>
  <path class="cls-1" d="M114.08,51.67c49-11-112,99-71,51"/>
  <path class="cls-2" d="M50.33,115.38s70.26-49.21,77.26-57.21"/>
  <path class="cls-2" d="M34.33,99.38s70.26-49.21,77.26-57.21"/>
</svg>