<?xml version="1.0" encoding="UTF-8"?>
<svg id="Calque_1" data-name="Calque 1" xmlns="http://www.w3.org/2000/svg" xmlns:xlink="http://www.w3.org/1999/xlink" viewBox="0 0 141.73 141.73">
  <defs>
    <style>
      .cls-1 {
        opacity: .3;
      }

      .cls-1, .cls-2 {
        fill: #fff;
      }

      .cls-3 {
        fill: url(#Dégradé_sans_nom_74);
      }
    </style>
    <linearGradient id="Dégradé_sans_nom_74" data-name="Dégradé sans nom 74" x1="39.03" y1="39.03" x2="102.71" y2="102.71" gradientUnits="userSpaceOnUse">
      <stop offset="0" stop-color="#5ca847"/>
      <stop offset="1" stop-color="#296438"/>
    </linearGradient>
  </defs>
  <circle class="cls-3" cx="70.87" cy="70.87" r="45.03"/>
  <path class="cls-2" d="M55.8,100.79c-14.71-6.1-14.77-16.69-19.72-22.58-3.15-3.76-.81-8.66,2.24-12.73,1.47-1.96,4.21-2.33,6.19-.89,2.76,2.01,6.85,4.51,10.55,4.9,2.13.22,3.75,1.99,3.87,4.13.51,9.2,1.12,28.95-3.14,27.18Z"/>
  <path class="cls-2" d="M83.3,97.38s-2.87,2.96-4.98,2.3-3.25-2.38-5.43-1.02c-3.84.82-4.34,5.31-4.34,5.31l-.25,3.04s9.36,4.66,17.04.17c4.86-2.84-2.04-9.8-2.04-9.8Z"/>
  <path class="cls-2" d="M96.26,87.65c-1.49.43-3.17-.45-3.38-1.45-.74-3.56-3.08-11.21-9.72-11.78-8.67-.74-3.59-8.58,5.01-8.12,8.6.46,19.06,2.49,19.06,2.49l.26.04c1.8.31,3.07,1.29,3.15,2.44.26,3.87-.81,12.47-14.38,16.37Z"/>
  <path class="cls-2" d="M107.3,53.8h-21.05s-11.92-2.36-8.49-10.1c3.43-7.74,7.95-7.01,7.95-7.01l8.5,1.17s9.53,5.74,13.09,15.94Z"/>
  <path class="cls-1" d="M44.32,60.2c-3.13,2.33-7.72.63-8.39-3.22-1.34-7.7,8.18-16.87,15.5-20.99,9.44-5.32,21.93-2.42,19.28,3.99-2.66,6.41-12.38,5.16-16.7,7.75-2.9,1.74-5.38,9.26-9.69,12.47Z"/>
</svg>