<?xml version="1.0" encoding="UTF-8"?>
<svg id="Calque_1" xmlns="http://www.w3.org/2000/svg" xmlns:xlink="http://www.w3.org/1999/xlink" version="1.1" viewBox="0 0 141.7 141.7">
  <!-- Generator: Adobe Illustrator 29.2.1, SVG Export Plug-In . SVG Version: 2.1.0 Build 116)  -->
  <defs>
    <style>
      .st0 {
        fill: #2f277e;
      }

      .st1 {
        fill: none;
        stroke: #fff;
        stroke-linecap: round;
        stroke-linejoin: round;
        stroke-width: .2px;
      }

      .st2 {
        fill: url(#Dégradé_sans_nom);
      }

      .st3 {
        fill: #fff;
        isolation: isolate;
        opacity: .3;
      }
    </style>
    <linearGradient id="Dégradé_sans_nom" data-name="Dégradé sans nom" x1="18.7" y1="321.5" x2="123" y2="321.5" gradientTransform="translate(0 -256)" gradientUnits="userSpaceOnUse">
      <stop offset="0" stop-color="#2f277e"/>
      <stop offset="1" stop-color="#5e287e"/>
    </linearGradient>
  </defs>
  <g>
    <path class="st2" d="M38.7,84.4c-5,3.3-11.5,9.6-2.8,13.3,2.8,1.2,5.6,1.4,8.5,1.9-.5-2.1-1.7-4.1-2.3-6.2-5.2-18.8,8.5-37.6,28-37.9v-.5c-8.1-5.2-16.9-9.2-26.4-11.8-2.2-.6-4.6-.9-6.6-1.5-.3,0-.4.2-.4-.4,8.9-10.8,21.9-16.7,36-14.3,11.1,1.9,21.3,9.2,27.2,18.6,0,.2.6.5.2.8-10-10-26.2-13.3-39-6.8,8.6,6.7,17.6,12.9,26,19.8,5.8,4.8,13.4,14,13.4,22v5.8h0c4.8-2.1,14.3-9.4,6.3-13.9-2.2-1.2-4.6-1.7-7-2.2l-2.8-5.4c6.3.2,13.1.3,19.1,2.5,11.7,4.2,6.1,11.9-1.1,17.1-18.8,13.4-61.2,22-83.7,18.3-7.4-1.2-17.6-5.2-10.2-14,4.5-5.3,11.9-8.5,18-11.6"/>
    <path class="st0" d="M98.7,96.2c-7.4,19.6-33.6,25.4-48.5,10.5,16.5-.8,33.1-4.1,48.5-10.5Z"/>
  </g>
  <path class="st3" d="M53.2,36.3c-1.4.5-3.5,0-3.8-.7-.6-1.7,3.7-3.8,7-4.7,4.3-1.2,9.9-.5,8.8.9s-5.6,1.2-7.6,1.7c-1.3.4-2.4,2.1-4.4,2.8h0Z"/>
  <path class="st3" d="M52.4,78.7c-2,1.5-5,.4-5.4-2.1-.9-5,5.3-10.9,10-13.6,6.1-3.4,14.2-1.6,12.5,2.6s-8,3.3-10.8,5c-1.9,1.1-3.5,6-6.3,8.1Z"/>
  <g>
    <line class="st1" x1="78.1" y1="64.3" x2="80.5" y2="64.3"/>
    <line class="st1" x1="79.3" y1="63.2" x2="79.3" y2="65.4"/>
    <line class="st1" x1="80.4" y1="63.2" x2="78.2" y2="65.4"/>
    <line class="st1" x1="78.1" y1="63.1" x2="80.5" y2="65.6"/>
  </g>
  <g>
    <line class="st1" x1="74.1" y1="31.4" x2="76.5" y2="31.4"/>
    <line class="st1" x1="75.3" y1="30.2" x2="75.3" y2="32.4"/>
    <line class="st1" x1="76.4" y1="30.2" x2="74.2" y2="32.4"/>
    <line class="st1" x1="74.1" y1="30.1" x2="76.5" y2="32.5"/>
  </g>
  <g>
    <line class="st1" x1="61.1" y1="47.3" x2="63.5" y2="47.3"/>
    <line class="st1" x1="62.3" y1="46.2" x2="62.3" y2="48.4"/>
    <line class="st1" x1="63.4" y1="46.2" x2="61.2" y2="48.4"/>
    <line class="st1" x1="61.1" y1="46.1" x2="63.5" y2="48.5"/>
  </g>
  <g>
    <line class="st1" x1="70.1" y1="75.3" x2="72.5" y2="75.3"/>
    <line class="st1" x1="71.3" y1="74.2" x2="71.3" y2="76.4"/>
    <line class="st1" x1="72.4" y1="74.2" x2="70.2" y2="76.4"/>
    <line class="st1" x1="70.1" y1="74.1" x2="72.5" y2="76.6"/>
  </g>
  <g>
    <line class="st1" x1="87.1" y1="70.3" x2="89.5" y2="70.3"/>
    <line class="st1" x1="88.3" y1="69.2" x2="88.3" y2="71.4"/>
    <line class="st1" x1="89.4" y1="69.2" x2="87.2" y2="71.4"/>
    <line class="st1" x1="87.1" y1="69.1" x2="89.5" y2="71.6"/>
  </g>
</svg>