<?xml version="1.0" encoding="UTF-8"?>
<svg id="Calque_1" xmlns="http://www.w3.org/2000/svg" xmlns:xlink="http://www.w3.org/1999/xlink" version="1.1" viewBox="0 0 141.7 141.7">
  <!-- Generator: Adobe Illustrator 29.2.1, SVG Export Plug-In . SVG Version: 2.1.0 Build 116)  -->
  <defs>
    <style>
      .st0 {
        fill: url(#Dégradé_sans_nom);
      }

      .st1 {
        fill: #e69732;
      }

      .st2 {
        fill: url(#Dégradé_sans_nom1);
      }

      .st3 {
        fill: #fff;
        isolation: isolate;
        opacity: .3;
      }
    </style>
    <linearGradient id="Dégradé_sans_nom" data-name="Dégradé sans nom" x1="33.8" y1="63.7" x2="100.9" y2="63.7" gradientUnits="userSpaceOnUse">
      <stop offset="0" stop-color="#e69732"/>
      <stop offset="1" stop-color="#efb54f"/>
    </linearGradient>
    <linearGradient id="Dégradé_sans_nom1" data-name="Dégradé sans nom" x1="44.2" y1="87.7" x2="101.4" y2="87.7" xlink:href="#Dégradé_sans_nom"/>
  </defs>
  <g>
    <path class="st0" d="M100.9,65.1c-2.7-15.9-16.6-28-33.3-28s-33.8,15.1-33.8,33.8,2.3,13.9,6.2,19.4c26.3-9.3,48.3-19,60.9-25.2Z"/>
    <path class="st2" d="M44.2,95.2c6.1,5.8,14.3,9.4,23.4,9.4,18.7,0,33.8-15.1,33.8-33.8s0,0,0,0c-27.4,13-46.1,20.2-57.2,24.4Z"/>
  </g>
  <path class="st1" d="M25,76c-42.6,44.8,35.8,11,92.6-17.7,28-14-3.5-10.9-18.2-8.9-2.6,3.3,21.4-3,7.8,7.6-11,8.5-42.5,26.3-78.9,32.5-3.6.6-9.6.8-2.5-12.8.3-.5-.4-1-.8-.6h0Z"/>
  <path class="st3" d="M48.4,63.2c-2,1.5-5,.4-5.4-2.1-.9-5,5.3-10.9,10-13.6,6.1-3.4,14.2-1.6,12.5,2.6-1.7,4.2-8,3.3-10.8,5-1.9,1.1-3.5,6-6.3,8.1Z"/>
</svg>