<?xml version="1.0" encoding="UTF-8"?>
<svg id="Calque_1" xmlns="http://www.w3.org/2000/svg" xmlns:xlink="http://www.w3.org/1999/xlink" version="1.1" viewBox="0 0 141.7 141.7">
  <!-- Generator: Adobe Illustrator 29.2.1, SVG Export Plug-In . SVG Version: 2.1.0 Build 116)  -->
  <defs>
    <style>
      .st0, .st1 {
        fill: #fff;
      }

      .st2 {
        fill: url(#Dégradé_sans_nom);
      }

      .st1 {
        isolation: isolate;
        opacity: .3;
      }
    </style>
    <linearGradient id="Dégradé_sans_nom" data-name="Dégradé sans nom" x1="38" y1="104.9" x2="101.7" y2="41.2" gradientTransform="translate(0 144) scale(1 -1)" gradientUnits="userSpaceOnUse">
      <stop offset="0" stop-color="#5e287e"/>
      <stop offset="1" stop-color="#95295a"/>
    </linearGradient>
  </defs>
  <circle class="st2" cx="69.8" cy="71" r="45"/>
  <path class="st0" d="M66.4,51c6.4-.6,12.9-1.1,19.3-1.4,6.5-.7,13.1-.8,19.3,1.4v.4c-6.3,2.2-12.8,2.1-19.3,1.4-6.4-.3-12.9-.8-19.3-1.4v-.4h0Z"/>
  <path class="st0" d="M47.1,62.7c15.2-2.8,36-2.6,48.4,0-14.2,3.1-32.9,2.7-48.4,0Z"/>
  <g>
    <path class="st0" d="M73.1,75.7c-17.3,0-43.4,0-38,0"/>
    <path class="st0" d="M73.1,75.9c-10.8.5-33.4,3.8-38,0,5.1-4.6,28.2-1.2,38,0Z"/>
  </g>
  <path class="st0" d="M66.1,84.7c13-2.7,26.7-2.7,39.7-.2,0,.2,0-.3,0,.3-.2,0-.5-.1-.7-.2.2,0,.5-.1.7-.2,0,.7,0,.2,0,.3-13.1,2.5-26.7,2.6-39.7-.2h0Z"/>
  <path class="st0" d="M77.1,98.2c-11.1,4.4-25.5,5.2-35.9-.4,11.3.1,25.3-1,35.9.4Z"/>
  <path class="st1" d="M42.3,62.1c-3.1,2.3-7.7.6-8.4-3.2-1.3-7.7,8.2-16.9,15.5-21,9.4-5.3,21.9-2.4,19.3,4-2.7,6.4-12.4,5.2-16.7,7.8-2.9,1.7-5.4,9.3-9.7,12.5Z"/>
</svg>