<?xml version="1.0" encoding="UTF-8"?>
<svg id="Calque_1" data-name="Calque 1" xmlns="http://www.w3.org/2000/svg" xmlns:xlink="http://www.w3.org/1999/xlink" viewBox="0 0 141.73 141.73">
  <defs>
    <style>
      .cls-1 {
        fill: #982920;
      }

      .cls-2 {
        fill: #fff;
        opacity: .3;
      }

      .cls-3 {
        fill: url(#Dégradé_sans_nom_92);
      }
    </style>
    <linearGradient id="Dégradé_sans_nom_92" data-name="Dégradé sans nom 92" x1="25.84" y1="70.87" x2="115.9" y2="70.87" gradientUnits="userSpaceOnUse">
      <stop offset="0" stop-color="#ae2c2b"/>
      <stop offset="1" stop-color="#d75930"/>
    </linearGradient>
  </defs>
  <circle class="cls-3" cx="70.87" cy="70.87" r="45.03"/>
  <path class="cls-1" d="M61.18,68.77c.05,1.74,1.91,7.9-3.09,8.9-3.49.7-5.25-5.63-6.15-7.15-.41-.69-.83-1.41-.8-2.15.04-.96.81-1.84,1.63-2.64,1.14-1.12,5.34-3.1,7.32-2.05,1.83.97,1.03,3.52,1.09,5.07,0,0,0,.01,0,.02Z"/>
  <path class="cls-1" d="M57.08,104.67c-.59-.59-7.55-3.45-5-6,2-2,14.67-2.91,16.74-2,1.91.84,3.44,2.35,3.5,3.7,0,0,0,.01,0,.02.06,1.51-.24,7.28-2.24,7.28"/>
  <path class="cls-1" d="M43.32,86.39c.06,1.51-.12,8.28-2.24,8.28-5,0-6.48-5.45-7.42-6.76-.43-.6-.87-1.22-.84-1.87.04-.84-4.29-4.82-1.74-7.37,2-2,6.67,3.09,8.74,4,1.91.84,3.44,2.35,3.5,3.7,0,0,0,.01,0,.02Z"/>
  <path class="cls-1" d="M97.32,85.39c.06,1.51-1.56,3.13-3.38,4.22-3.02,1.8-6.91,1.39-7.86.07-.43-.6-2-.88-2-5s3.6-1.23,4.45-1.93c1.19-.98,3.22-1.99,5.29-1.08,1.91.84,3.44,2.35,3.5,3.7,0,0,0,.01,0,.02Z"/>
  <path class="cls-1" d="M95.01,52.67c.1,4.66-2.67,9.7-5.76,13.05-5.15,5.59-9.09-4.26-10.7-8.35-.73-1.86-1.48-3.79-1.43-5.79.06-2.59,1.45-4.95,2.9-7.1,2.03-3.02,5.49-6.15,9.02-3.34,3.26,2.6,5.86,7.28,5.96,11.46,0,.02,0,.04,0,.06Z"/>
  <path class="cls-2" d="M44.29,60.31c-3.13,2.33-7.72.63-8.39-3.22-1.34-7.7,8.18-16.87,15.5-20.99,9.44-5.32,21.93-2.42,19.28,3.99-2.66,6.41-12.38,5.16-16.7,7.75-2.9,1.74-5.38,9.26-9.69,12.47Z"/>
</svg>