<?xml version="1.0" encoding="UTF-8"?>
<svg id="Calque_1" data-name="Calque 1" xmlns="http://www.w3.org/2000/svg" xmlns:xlink="http://www.w3.org/1999/xlink" viewBox="0 0 141.73 141.73">
  <defs>
    <style>
      .cls-1 {
        fill: #fff;
        opacity: .3;
      }

      .cls-2 {
        fill: #efb54f;
      }

      .cls-3 {
        fill: url(#Dégradé_sans_nom_43);
      }
    </style>
    <radialGradient id="Dégradé_sans_nom_43" data-name="Dégradé sans nom 43" cx="70.92" cy="72.06" fx="70.92" fy="72.06" r="28.05" gradientUnits="userSpaceOnUse">
      <stop offset="0" stop-color="#efb54f"/>
      <stop offset=".55" stop-color="#f5ca38"/>
      <stop offset="1" stop-color="#fff058"/>
    </radialGradient>
  </defs>
  <circle class="cls-3" cx="70.92" cy="72.06" r="28.05"/>
  <path class="cls-2" d="M86.96,98.93l-9.13,3.75c2.66,9.02,14.57,7.75,17.41,17.14.47,1.58.41,2.98.68,4.54,3.44-3.58,1.95-9.51-.72-13.12-2.94-3.98-8.45-6.31-8.24-12.1,0-.06,0-.14,0-.21Z"/>
  <path class="cls-2" d="M101.15,81.07l-4.64,8.71c7.8,5.25,16.16-3.33,24.34,2.1,1.37.91,2.22,2.03,3.42,3.07.36-4.95-4.57-8.57-8.93-9.65-4.8-1.18-10.54.53-14.06-4.06-.04-.05-.08-.11-.13-.16Z"/>
  <path class="cls-2" d="M99.28,57.52l2.54,9.54c9.29-1.48,9.56-13.45,19.24-15.06,1.62-.27,3.01-.03,4.59-.09-3.11-3.87-9.18-3.16-13.11-.97-4.32,2.41-7.35,7.57-13.06,6.61-.06-.01-.13-.02-.21-.03Z"/>
  <path class="cls-2" d="M82.97,41.86l8.21,5.48c5.99-7.25-1.72-16.41,4.48-24.02,1.04-1.27,2.24-2.01,3.39-3.1-4.89-.85-8.98,3.7-10.48,7.94-1.65,4.66-.51,10.54-5.43,13.6-.05.03-.11.07-.18.12Z"/>
  <path class="cls-2" d="M53.12,97.05l8.74,4.58c-3.49,8.73-15.23,6.36-18.93,15.45-.62,1.52-.69,2.93-1.1,4.46-3.09-3.88-1.06-9.65,1.94-13,3.3-3.69,9-5.5,9.33-11.28,0-.06,0-.14.02-.21Z"/>
  <path class="cls-2" d="M40.65,79.35l4.25,8.91c-8.03,4.89-16-4.05-24.41,1-1.41.85-2.31,1.93-3.56,2.91-.14-4.96,4.95-8.36,9.35-9.24,4.85-.97,10.5,1,14.23-3.43.04-.05.09-.1.14-.16Z"/>
  <path class="cls-2" d="M42.45,58.54l-2.54,9.54c-9.29-1.48-9.56-13.45-19.24-15.06-1.62-.27-3.01-.03-4.59-.09,3.11-3.87,9.18-3.16,13.11-.97,4.32,2.41,7.35,7.57,13.06,6.61.06-.01.13-.02.21-.03Z"/>
  <path class="cls-2" d="M63.52,41.88l-9.17,3.66c-4.36-8.33,5.08-15.7.6-24.42-.75-1.46-1.78-2.43-2.67-3.74,4.96.18,8.01,5.48,8.61,9.93.65,4.9-1.68,10.41,2.49,14.43.05.04.1.09.15.15Z"/>
  <path class="cls-1" d="M53,67.68c-2.06,1.54-5.09.41-5.53-2.12-.88-5.07,5.39-11.11,10.21-13.83,6.22-3.51,14.45-1.59,12.7,2.63-1.75,4.22-8.16,3.4-11,5.11-1.91,1.15-3.54,6.1-6.38,8.22Z"/>
</svg>